<svg xmlns="http://www.w3.org/2000/svg" viewBox="0 0 533.12 138.59"><defs><style>.cls-1{fill:#0062ad;}.cls-2{fill:#f2f2f2;}.cls-3{fill:#ec1c24;}.cls-4{fill:#00447f;}.cls-5{fill:#37b34a;}.cls-6{fill:#916d5c;}.cls-7{fill:#724b3f;}.cls-8{fill:#1c1b1a;}</style></defs><g id="Layer_2" data-name="Layer 2"><g id="Layer_2-2" data-name="Layer 2"><path class="cls-1" d="M203.81,17.58l-24.51,106H214l16.09-81.95a24.91,24.91,0,0,1,8.93-2A25.19,25.19,0,0,1,248,40.81l.61.24A14.85,14.85,0,0,1,256,48.83c2,5.21-1.21,13.28-8.94,17.59l-8.54-10.8-8.42,35.23,35.49,1.79-8.69-13s25.28-7.41,27.83-25.53c1.86-13.18,1.23-24.33-5.26-31a21.59,21.59,0,0,0-10-5.5C248.19,11.35,214.35,16,203.81,17.58Z"/><polygon class="cls-1" points="232.47 96.73 246.96 123.53 285.65 123.53 269.5 96.73 232.47 96.73"/><path class="cls-1" d="M310.87,15.76,290.45,123.53s111.66,21.11,105.87-69.44l-31,18.38s0,33.36-37.79,26.55l11.92-58.55A43.16,43.16,0,0,1,353,39c4.08.23,7.56.46,11.24,2.68a18.64,18.64,0,0,1,6.16,6.24q-1.86,8.63-3.74,17.25l36.09-21L381.34,2.34l-3.06,19.75S371.81,11.48,310.87,15.76Z"/><polygon class="cls-1" points="395.64 123.53 416.4 15.76 449.08 15.76 499.13 123.53 465.77 123.53 440.91 67.66 426.96 123.53 395.64 123.53"/><path class="cls-1" d="M499.13,112,478,67.66l8.67-31.41-17.52-1.91L508,2.38,533.12,42.5l-19-2.37Z"/><path class="cls-2" d="M92.79,46.67c-7-8.16-14.1-12.89-21.54-15.74L57.31,51.55c10,2.38,19.38,7.2,28.56,17.9,15.13,17.64,30.05,19.4,48,20.38L114.59,62.69C107.14,59.86,100,55.07,92.79,46.67Z"/><path class="cls-3" d="M92.79,46.67c7.2,8.4,14.35,13.19,21.8,16L81.41,15.91l-10.16,15C78.69,33.78,85.79,38.51,92.79,46.67Z"/><path class="cls-2" d="M78.94,92.22C67.51,78.89,55.82,74.69,42.84,73L28,94.94c15,1.1,28.08,3.64,40.77,16.49l41.67-.53C99.35,108.83,89.2,104.17,78.94,92.22Z"/><path class="cls-3" d="M85.87,69.45c-9.18-10.7-18.52-15.52-28.56-17.9L42.84,73c13,1.73,24.67,5.93,36.1,19.26,10.26,12,20.41,16.61,31.47,18.68l38-.49-14.6-20.58C115.92,88.85,101,87.09,85.87,69.45Z"/><path class="cls-3" d="M28,94.94,16.37,112.1l52.37-.67C56.05,98.58,42.93,96,28,94.94Z"/><path class="cls-4" d="M81.31,16.3A137.4,137.4,0,0,0,53.48,55.79q-6,9.36-11.92,18.73a122.69,122.69,0,0,0-25.19,37.19L81.31,75.23Z"/><polygon class="cls-2" points="69.22 57.2 69.13 64.56 75.14 68.8 68.11 70.99 65.93 78.02 61.67 72.02 54.31 72.11 58.71 66.21 56.35 59.24 63.32 61.6 69.22 57.2"/><path class="cls-1" d="M53.49,55.79,38.86,43.2,68.13,4.05a25,25,0,0,1,27.24,0l22.12,31.66,6.3-6.3V59.2l-13.36-2.41L81.32,16.3Z"/><path class="cls-1" d="M41.58,74.52l.59-17.32L13.58,64.47,21.75,71,.57,103A20.45,20.45,0,0,0,3,118.47a20.11,20.11,0,0,0,10.73,8.3H67.45l-.64-15.06H16.39Z"/><path class="cls-1" d="M103.11,110.9l-14.52,7.95,21.93,19.74.88-10.41,38.41-.17a20.5,20.5,0,0,0,11.51-10.59,20.08,20.08,0,0,0,.94-13.52L132.43,59.2l-14.22,8.57,30,42.26Z"/><path class="cls-5" d="M50.91,77c-2.2.68-6.64,2.26-6.84,4.72-.1,1.33,1,3.24,1.52,4.08.91,1.54,1.5,1.8,1.63,2.9a6.17,6.17,0,0,1-.81,3.22c-.66,1.5-1,1.45-1.28,2.47-.09.3-.77,2.57.29,3.93.89,1.13,2.59,1.14,3.72,1.14,5.75,0,8.62,0,10.37-.47,3.51-.84,8.92-1.42,17.06,0h0A144.9,144.9,0,0,1,93,98.26c7.56.18,10.66,1.11,13.62-1.26,1.28-1,.79-1.29,2.93-3.33,3.9-3.71,6.17-3.45,7.21-6.13.5-1.29.48-2.66,1.72-3.57.63-.46,1.16-.48,1.66-1.15a2.78,2.78,0,0,0,.51-2.55c-.57-1.49-3.06-2.17-3.06-2.17a63.58,63.58,0,0,0-9.57-2,68.88,68.88,0,0,0-13.14-.38c-2.56.09-10.31-.15-25.8-.64A53.13,53.13,0,0,0,50.91,77Z"/><path class="cls-6" d="M84.66,95s2.86-1,3.39.39a1.89,1.89,0,0,1,.07.78,4.51,4.51,0,0,1-.21.87c-1.27,3.69-8,6.06-8,6.06l-1.65,2.48s1.16.5-.5,1a1.35,1.35,0,0,1-1.06,0c-.52-.25-.83-.93-.64-1.25s.36-.21.49-.24c1.22-.22,2.42-2.22,2.1-2.73s-3.11.47-4,.82a1.2,1.2,0,0,1-.61.62,1,1,0,0,1-.84,0c-.56-.33-.48-1.69-.48-1.69h0a1,1,0,0,1,.57-.46,1.27,1.27,0,0,1,1,.38c.49.38,1.77.35,5.33-1.54,0,0-2.37-1.49-1.6-2.53s.94.55.94.55a1.71,1.71,0,0,0,2.2,1.26A2.42,2.42,0,0,0,83,97.48a9.48,9.48,0,0,0-3.08-.07c-1.21.27-6.28-.39-6.28-.39a27.46,27.46,0,0,1-5.08-2c-1.47-.79-2.75-1.77-3-2.89-.55-2.86,2.21-4.63,2.21-4.63,0-4.8,3.2-3.49,4.15-3l.26.14,3-.67,1.26-1.2A19.19,19.19,0,0,1,91.93,77s1.6.89.71,1.82A5,5,0,0,1,90.06,80s3.25-.22,3.41.5,1.93.71,1.32,4c0,0,4.08-4.91,4.47-1.16s-2.7,9.15-2.7,9.15-5.44,7.36-7.33,6.5a2,2,0,0,1-.81-.66,2.76,2.76,0,0,1,0-2.48"/><path class="cls-7" d="M68.61,95l-.74.7s-.16-1-1,.44,1.45,1.58,1.45,1.58.8-.17.33-1.08l.77-.78,2.07.5-.07,1.36s-1,.35-.4.84,2.25,0,2.25,0,.72-.58-.16-.82l-.46.09,0-1.25Z"/><path class="cls-7" d="M93.37,80.34A62.33,62.33,0,0,0,70.64,90.89q2.81-1.64,6-3.2a92.84,92.84,0,0,1,17.54-6.44,4.35,4.35,0,0,1-.41-.35l-.12-.13-.11-.13c0-.08,0-.11-.08-.19A.38.38,0,0,0,93.37,80.34Z"/><path class="cls-8" d="M74.93,91.56a4.1,4.1,0,0,0,3.94.41C80.82,91,77,90.78,77,90.78S74.09,90.73,74.93,91.56Z"/><path class="cls-7" d="M74.62,90.89a7.57,7.57,0,0,1,4.45,0c2.38.75-4.3.12-4.3.12Z"/><path class="cls-8" d="M68.84,84.36c.07,0-.24.54-.42,1.35a5.41,5.41,0,0,0-.1,1.53,4.11,4.11,0,0,1-.52.31l-.07,0c-.17,0-.14-1.14.26-2.06C68.29,84.82,68.77,84.31,68.84,84.36Z"/><path class="cls-7" d="M94.79,84.52s-5.08,2.8-5.12,6.74"/></g></g></svg>